<svg width="181" height="40" viewBox="0 0 181 40" fill="none" xmlns="http://www.w3.org/2000/svg">
<path d="M59.6 23.04V28H56.18V13.86H61.72C63.4 13.86 64.68 14.28 65.56 15.12C66.44 15.9467 66.88 17.0667 66.88 18.48C66.88 19.36 66.68 20.1467 66.28 20.84C65.8933 21.52 65.3133 22.06 64.54 22.46C63.7667 22.8467 62.8267 23.04 61.72 23.04H59.6ZM61.34 20.3C62.7133 20.3 63.4 19.6933 63.4 18.48C63.4 17.24 62.7133 16.62 61.34 16.62H59.6V20.3H61.34ZM75.8228 28L72.7628 22.66H71.9828V28H68.5628V13.86H74.4028C75.5228 13.86 76.4695 14.0533 77.2428 14.44C78.0161 14.8267 78.5961 15.36 78.9828 16.04C79.3695 16.7067 79.5628 17.4733 79.5628 18.34C79.5628 19.3667 79.2761 20.24 78.7028 20.96C78.1428 21.68 77.3228 22.1733 76.2428 22.44L79.6028 28H75.8228ZM71.9828 20.32H74.1028C74.7828 20.32 75.2828 20.1733 75.6028 19.88C75.9228 19.5733 76.0828 19.1267 76.0828 18.54C76.0828 17.98 75.9161 17.54 75.5828 17.22C75.2628 16.9 74.7695 16.74 74.1028 16.74H71.9828V20.32ZM87.9977 13.64C89.331 13.64 90.5377 13.9533 91.6177 14.58C92.711 15.1933 93.571 16.0533 94.1977 17.16C94.8243 18.2533 95.1377 19.4933 95.1377 20.88C95.1377 22.2667 94.8177 23.5133 94.1777 24.62C93.551 25.7267 92.691 26.5933 91.5977 27.22C90.5177 27.8333 89.3177 28.14 87.9977 28.14C86.6777 28.14 85.471 27.8333 84.3777 27.22C83.2977 26.5933 82.4377 25.7267 81.7977 24.62C81.171 23.5133 80.8577 22.2667 80.8577 20.88C80.8577 19.4933 81.171 18.2533 81.7977 17.16C82.4377 16.0533 83.2977 15.1933 84.3777 14.58C85.471 13.9533 86.6777 13.64 87.9977 13.64ZM87.9977 16.82C86.8777 16.82 85.9843 17.1867 85.3177 17.92C84.6643 18.64 84.3377 19.6267 84.3377 20.88C84.3377 22.12 84.6643 23.1067 85.3177 23.84C85.9843 24.5733 86.8777 24.94 87.9977 24.94C89.1043 24.94 89.991 24.5733 90.6577 23.84C91.3243 23.1067 91.6577 22.12 91.6577 20.88C91.6577 19.64 91.3243 18.6533 90.6577 17.92C90.0043 17.1867 89.1177 16.82 87.9977 16.82ZM100.479 23.04V28H97.0589V13.86H102.599C104.279 13.86 105.559 14.28 106.439 15.12C107.319 15.9467 107.759 17.0667 107.759 18.48C107.759 19.36 107.559 20.1467 107.159 20.84C106.772 21.52 106.192 22.06 105.419 22.46C104.646 22.8467 103.706 23.04 102.599 23.04H100.479ZM102.219 20.3C103.592 20.3 104.279 19.6933 104.279 18.48C104.279 17.24 103.592 16.62 102.219 16.62H100.479V20.3H102.219ZM112.862 16.58V19.54H117.642V22.12H112.862V25.26H118.242V28H109.442V13.86H118.242V16.58H112.862ZM127.444 28L124.384 22.66H123.604V28H120.184V13.86H126.024C127.144 13.86 128.091 14.0533 128.864 14.44C129.637 14.8267 130.217 15.36 130.604 16.04C130.991 16.7067 131.184 17.4733 131.184 18.34C131.184 19.3667 130.897 20.24 130.324 20.96C129.764 21.68 128.944 22.1733 127.864 22.44L131.224 28H127.444ZM123.604 20.32H125.724C126.404 20.32 126.904 20.1733 127.224 19.88C127.544 19.5733 127.704 19.1267 127.704 18.54C127.704 17.98 127.537 17.54 127.204 17.22C126.884 16.9 126.391 16.74 125.724 16.74H123.604V20.32ZM143.059 13.86V16.58H139.219V28H135.779V16.58H131.979V13.86H143.059ZM156.72 13.86L151.82 23.3V28H148.38V23.3L143.48 13.86H147.4L150.12 19.62L152.84 13.86H156.72ZM160.975 24.58V28H157.435V24.58H160.975ZM162.442 13.7C162.442 13.18 162.629 12.7533 163.002 12.42C163.375 12.0733 163.869 11.9 164.482 11.9C165.095 11.9 165.589 12.0733 165.962 12.42C166.335 12.7533 166.522 13.18 166.522 13.7C166.522 14.2067 166.335 14.6333 165.962 14.98C165.589 15.3133 165.095 15.48 164.482 15.48C163.869 15.48 163.375 15.3133 163.002 14.98C162.629 14.6333 162.442 14.2067 162.442 13.7ZM166.182 16.84V28H162.762V16.84H166.182ZM173.763 16.7C174.87 16.7 175.857 16.9333 176.723 17.4C177.603 17.8533 178.29 18.5133 178.783 19.38C179.29 20.2467 179.543 21.26 179.543 22.42C179.543 23.58 179.29 24.5933 178.783 25.46C178.29 26.3267 177.603 26.9933 176.723 27.46C175.857 27.9133 174.87 28.14 173.763 28.14C172.657 28.14 171.663 27.9133 170.783 27.46C169.903 26.9933 169.21 26.3267 168.703 25.46C168.21 24.5933 167.963 23.58 167.963 22.42C167.963 21.26 168.21 20.2467 168.703 19.38C169.21 18.5133 169.903 17.8533 170.783 17.4C171.663 16.9333 172.657 16.7 173.763 16.7ZM173.763 19.66C173.11 19.66 172.557 19.9 172.103 20.38C171.663 20.8467 171.443 21.5267 171.443 22.42C171.443 23.3133 171.663 23.9933 172.103 24.46C172.557 24.9267 173.11 25.16 173.763 25.16C174.417 25.16 174.963 24.9267 175.403 24.46C175.843 23.9933 176.063 23.3133 176.063 22.42C176.063 21.5267 175.843 20.8467 175.403 20.38C174.963 19.9 174.417 19.66 173.763 19.66Z" fill="black"/>
<circle cx="20" cy="20" r="20" fill="#FE8934"/>
</svg>
